<mxfile host="app.diagrams.net" agent="Mozilla/5.0 (Macintosh; Intel Mac OS X 10_15_7) AppleWebKit/605.1.15 (KHTML, like Gecko) Version/17.5 Safari/605.1.15" version="24.7.10">
  <diagram name="Page-1" id="NVIDplfwPpL645zohMpe">
    <mxGraphModel dx="954" dy="1816" grid="1" gridSize="10" guides="1" tooltips="1" connect="1" arrows="1" fold="1" page="1" pageScale="1" pageWidth="827" pageHeight="1169" math="0" shadow="0">
      <root>
        <mxCell id="0" />
        <mxCell id="1" parent="0" />
        <mxCell id="J_tO9Nc0sdhzEk3S7hDS-102" value="Відслідковування розкладу і управління складанням і тестуванням&amp;nbsp;" style="whiteSpace=wrap;html=1;align=center;rounded=1;" vertex="1" parent="1">
          <mxGeometry x="60" y="50" width="120" height="90" as="geometry" />
        </mxCell>
        <mxCell id="J_tO9Nc0sdhzEk3S7hDS-103" value="Складання настільних комп&#39;ютерів" style="whiteSpace=wrap;html=1;align=center;rounded=1;" vertex="1" parent="1">
          <mxGeometry x="220" y="190" width="120" height="70" as="geometry" />
        </mxCell>
        <mxCell id="J_tO9Nc0sdhzEk3S7hDS-104" value="Складання ноутбуків" style="whiteSpace=wrap;html=1;align=center;rounded=1;" vertex="1" parent="1">
          <mxGeometry x="413.5" y="250" width="120" height="50" as="geometry" />
        </mxCell>
        <mxCell id="J_tO9Nc0sdhzEk3S7hDS-105" value="Тестування комп&#39;ютерів" style="whiteSpace=wrap;html=1;align=center;rounded=1;" vertex="1" parent="1">
          <mxGeometry x="640" y="310" width="120" height="50" as="geometry" />
        </mxCell>
        <mxCell id="J_tO9Nc0sdhzEk3S7hDS-120" value="" style="endArrow=classic;html=1;rounded=1;exitX=1;exitY=0.178;exitDx=0;exitDy=0;exitPerimeter=0;" edge="1" parent="1" source="J_tO9Nc0sdhzEk3S7hDS-102">
          <mxGeometry width="50" height="50" relative="1" as="geometry">
            <mxPoint x="340" y="230" as="sourcePoint" />
            <mxPoint x="280" y="180" as="targetPoint" />
            <Array as="points">
              <mxPoint x="280" y="66" />
            </Array>
          </mxGeometry>
        </mxCell>
        <mxCell id="J_tO9Nc0sdhzEk3S7hDS-121" value="" style="endArrow=classic;html=1;rounded=1;exitX=1.033;exitY=0.333;exitDx=0;exitDy=0;exitPerimeter=0;" edge="1" parent="1" source="J_tO9Nc0sdhzEk3S7hDS-102">
          <mxGeometry width="50" height="50" relative="1" as="geometry">
            <mxPoint x="340" y="230" as="sourcePoint" />
            <mxPoint x="470" y="240" as="targetPoint" />
            <Array as="points">
              <mxPoint x="470" y="80" />
            </Array>
          </mxGeometry>
        </mxCell>
        <mxCell id="J_tO9Nc0sdhzEk3S7hDS-122" value="" style="endArrow=classic;html=1;rounded=1;exitX=1;exitY=0.75;exitDx=0;exitDy=0;" edge="1" parent="1" source="J_tO9Nc0sdhzEk3S7hDS-102">
          <mxGeometry width="50" height="50" relative="1" as="geometry">
            <mxPoint x="340" y="230" as="sourcePoint" />
            <mxPoint x="700" y="300" as="targetPoint" />
            <Array as="points">
              <mxPoint x="700" y="120" />
            </Array>
          </mxGeometry>
        </mxCell>
        <mxCell id="J_tO9Nc0sdhzEk3S7hDS-123" value="" style="endArrow=classic;html=1;rounded=1;entryX=0;entryY=0.5;entryDx=0;entryDy=0;" edge="1" parent="1" target="J_tO9Nc0sdhzEk3S7hDS-105">
          <mxGeometry width="50" height="50" relative="1" as="geometry">
            <mxPoint x="533.5" y="280" as="sourcePoint" />
            <mxPoint x="630" y="330" as="targetPoint" />
            <Array as="points">
              <mxPoint x="610" y="280" />
              <mxPoint x="610" y="335" />
            </Array>
          </mxGeometry>
        </mxCell>
        <mxCell id="J_tO9Nc0sdhzEk3S7hDS-124" value="" style="endArrow=classic;html=1;rounded=1;entryX=0;entryY=0.75;entryDx=0;entryDy=0;exitX=1;exitY=0.5;exitDx=0;exitDy=0;" edge="1" parent="1" source="J_tO9Nc0sdhzEk3S7hDS-103" target="J_tO9Nc0sdhzEk3S7hDS-105">
          <mxGeometry width="50" height="50" relative="1" as="geometry">
            <mxPoint x="350" y="230" as="sourcePoint" />
            <mxPoint x="390" y="180" as="targetPoint" />
            <Array as="points">
              <mxPoint x="380" y="225" />
              <mxPoint x="380" y="348" />
            </Array>
          </mxGeometry>
        </mxCell>
        <mxCell id="J_tO9Nc0sdhzEk3S7hDS-125" value="" style="endArrow=classic;html=1;rounded=1;exitX=1;exitY=0.75;exitDx=0;exitDy=0;entryX=-0.008;entryY=0.867;entryDx=0;entryDy=0;entryPerimeter=0;" edge="1" parent="1" source="J_tO9Nc0sdhzEk3S7hDS-105" target="J_tO9Nc0sdhzEk3S7hDS-102">
          <mxGeometry width="50" height="50" relative="1" as="geometry">
            <mxPoint x="790" y="380" as="sourcePoint" />
            <mxPoint x="310" y="340" as="targetPoint" />
            <Array as="points">
              <mxPoint x="800" y="348" />
              <mxPoint x="800" y="400" />
              <mxPoint x="40" y="400" />
              <mxPoint x="40" y="180" />
              <mxPoint x="40" y="130" />
            </Array>
          </mxGeometry>
        </mxCell>
        <mxCell id="J_tO9Nc0sdhzEk3S7hDS-126" value="" style="endArrow=classic;html=1;rounded=1;" edge="1" parent="1">
          <mxGeometry width="50" height="50" relative="1" as="geometry">
            <mxPoint x="113" as="sourcePoint" />
            <mxPoint x="113" y="50" as="targetPoint" />
            <Array as="points">
              <mxPoint x="113" y="30" />
            </Array>
          </mxGeometry>
        </mxCell>
        <mxCell id="J_tO9Nc0sdhzEk3S7hDS-127" value="Замовлення клієнтів" style="text;html=1;align=center;verticalAlign=middle;whiteSpace=wrap;rounded=0;" vertex="1" parent="1">
          <mxGeometry x="50" width="60" height="30" as="geometry" />
        </mxCell>
        <mxCell id="J_tO9Nc0sdhzEk3S7hDS-128" value="Результати тестування" style="text;html=1;align=center;verticalAlign=middle;whiteSpace=wrap;rounded=0;" vertex="1" parent="1">
          <mxGeometry x="730" y="410" width="60" height="30" as="geometry" />
        </mxCell>
        <mxCell id="J_tO9Nc0sdhzEk3S7hDS-129" value="Настільні комп&#39;ютери" style="text;html=1;align=center;verticalAlign=middle;whiteSpace=wrap;rounded=0;" vertex="1" parent="1">
          <mxGeometry x="310" y="290" width="60" height="30" as="geometry" />
        </mxCell>
        <mxCell id="J_tO9Nc0sdhzEk3S7hDS-130" value="ноутбуки" style="text;html=1;align=center;verticalAlign=middle;whiteSpace=wrap;rounded=0;" vertex="1" parent="1">
          <mxGeometry x="550" y="250" width="60" height="30" as="geometry" />
        </mxCell>
        <mxCell id="J_tO9Nc0sdhzEk3S7hDS-131" value="замовлення на ноутбуки" style="text;html=1;align=center;verticalAlign=middle;whiteSpace=wrap;rounded=0;" vertex="1" parent="1">
          <mxGeometry x="510" y="80" width="90" height="30" as="geometry" />
        </mxCell>
        <mxCell id="J_tO9Nc0sdhzEk3S7hDS-133" value="&lt;span style=&quot;caret-color: rgb(0, 0, 0); color: rgb(0, 0, 0); font-family: Helvetica; font-size: 12px; font-style: normal; font-variant-caps: normal; font-weight: 400; letter-spacing: normal; orphans: auto; text-align: center; text-indent: 0px; text-transform: none; white-space: normal; widows: auto; word-spacing: 0px; -webkit-text-stroke-width: 0px; background-color: rgb(251, 251, 251); text-decoration: none; display: inline !important; float: none;&quot;&gt;Замовлення на настільні комп&#39;ютери&lt;/span&gt;" style="text;whiteSpace=wrap;html=1;" vertex="1" parent="1">
          <mxGeometry x="180" y="20" width="130" height="40" as="geometry" />
        </mxCell>
        <mxCell id="J_tO9Nc0sdhzEk3S7hDS-134" value="Передати комп&#39;ютери на відвантаження" style="text;html=1;align=center;verticalAlign=middle;whiteSpace=wrap;rounded=0;" vertex="1" parent="1">
          <mxGeometry x="630" y="170" width="60" height="30" as="geometry" />
        </mxCell>
      </root>
    </mxGraphModel>
  </diagram>
</mxfile>
